<?xml version="1.0" encoding="UTF-8" standalone="yes"?>
<!DOCTYPE svg PUBLIC "-//W3C//DTD SVG 1.0//EN" "http://www.w3.org/TR/2001/REC-SVG-20010904/DTD/svg10.dtd">
<svg height="778.396676411708" style="background: white" width="1541.63042618812" xmlns="http://www.w3.org/2000/svg" xmlns:svg="http://www.w3.org/2000/svg" xmlns:xlink="http://www.w3.org/1999/xlink">
	<marker id="Tri" markerHeight="6" markerUnits="strokeWidth" markerWidth="8" orient="auto" refX="0" refY="10" viewBox="0 0 20 20">
		<path d="M 0 0 L 20 10 L 0 20 z" />
	</marker>
	<g id="group_Player2" style="stroke: #0000FF; marker-mid: url(#Tri); stroke-width: 0.5">
		<polyline id="1" points="330.473630109855,558.988562342898 295.999051158375,457.29599425551 261.524472206896,355.603426168121 " />
		<polyline id="5" points="510.766716744437,256.244550443635 507.004296144073,256.213776478415 503.241875543709,256.183002513194 " />
		<polyline id="10" points="537.41335231014,256.326614350915 557.668485279738,254.823819049077 577.923618249335,253.32102374724 " />
		<polyline id="11" points="537.41335231014,256.326614350915 522.561345246584,241.462789147029 507.709338183028,226.598963943142 " />
		<polyline id="14" points="527.186948156297,256.203518489959 517.448143169662,241.401241216551 507.709338183028,226.598963943142 " />
		<polyline id="20" points="663.200759073309,243.23742114166 623.830420916748,229.599425552589 584.460082760187,215.961429963518 " />
		<polyline id="21" points="663.200759073309,243.23742114166 666.521704752169,233.205108478175 669.842650431029,223.172795814689 " />
		<polyline id="27" points="72.9685564429496,462.132635790102 201.721093276402,510.5605990665 330.473630109855,558.988562342898 " />
		<polyline id="29" points="72.9685564429496,462.132635790102 60.0537676920149,417.135969636311 47.1389789410802,372.139303482521 " />
		<polyline id="31" points="584.460082760187,215.961429963518 581.191850504761,234.641226855379 577.923618249335,253.32102374724 " />
		<polyline id="32" points="584.460082760187,215.961429963518 467.469228539106,161.358157665249 350.478374318025,106.75488536698 " />
		<polyline id="42" points="408.344534935803,227.050315433142 404.832503096961,227.593988818767 401.320471258118,228.137662204392 " />
		<polyline id="44" points="453.269550090977,249.156280453347 357.397011148936,302.379853310734 261.524472206896,355.603426168121 " />
		<polyline id="49" points="506.575999578404,212.217264194476 428.527186948215,159.486074780728 350.478374318025,106.75488536698 " />
		<polyline id="51" points="487.968161092308,263.537980202013 517.896207269271,282.007488331484 547.824253446235,300.476996460956 " />
		<polyline id="54" points="412.917424422177,228.383853926229 432.994649587533,237.482689644532 453.071874752889,246.581525362834 " />
		<polyline id="55" points="412.917424422177,228.383853926229 407.118947840147,228.26075806531 401.320471258118,228.137662204392 " />
		<polyline id="60" points="526.106322975201,778.396676411708 428.289976542528,668.692619377303 330.473630109855,558.988562342898 " />
		<polyline id="64" points="545.570754592636,213.530286710726 565.015418676412,214.745858337122 584.460082760187,215.961429963518 " />
		<polyline id="71" points="518.634195197813,261.578704416058 516.103950871116,258.809047545766 513.573706544419,256.039390675474 " />
		<polyline id="80" points="785.746290292816,290.793455403389 778.649745657757,275.226957993511 771.553201022698,259.660460583633 " />
		<polyline id="81" points="547.824253446235,300.476996460956 576.922063203437,299.825614197023 606.019872960639,299.174231933089 " />
		<polyline id="86" points="11.6628449434213,315.269015745945 138.728552225868,295.132584500114 265.794259508314,274.996153254284 " />
		<polyline id="87" points="11.6628449434213,315.269015745945 163.899211934299,227.373442067958 316.135578925177,139.477868389971 " />
		<polyline id="101" points="710.866872249102,350.484689952243 748.306581270959,320.639072677816 785.746290292816,290.793455403389 " />
		<polyline id="102" points="265.794259508314,274.996153254284 264.423710498004,280.309791249868 263.053161487694,285.623429245452 " />
		<polyline id="108" points="47.1389789410802,372.139303482521 23.5694894705401,365.70754475043 0,359.275786018339 " />
		<polyline id="128" points="357.950502095413,236.785146432767 337.043040510295,188.131507411369 316.135578925177,139.477868389971 " />
		<polyline id="140" points="1541.63042618812,237.554495563355 1033.86837458166,507.975585987531 526.106322975201,778.396676411708 " />
		<polyline id="148" points="316.135578925177,139.477868389971 366.516433409826,182.310098989536 416.897287894475,225.1423295891 " />
	</g>
	<g id="group_Player 3" style="stroke: #00FF00; marker-mid: url(#Tri); stroke-width: 0.5">
		<polyline id="2" points="330.473630109855,558.988562342898 439.148941778045,429.732779401927 547.824253446235,300.476996460956 " />
		<polyline id="3" points="492.883687831142,256.418936246576 500.296513007085,241.508950094859 507.709338183028,226.598963943142 " />
		<polyline id="6" points="513.573706544419,256.039390675474 510.641522363724,241.319177309308 507.709338183028,226.598963943142 " />
		<polyline id="9" points="503.241875543709,256.183002513194 498.062781687425,256.300969379885 492.883687831142,256.418936246576 " />
		<polyline id="12" points="537.41335231014,256.326614350915 549.326586015176,236.395342873245 561.239819720213,216.464071395576 " />
		<polyline id="18" points="663.200759073309,243.23742114166 634.610316016974,271.205826537374 606.019872960639,299.174231933089 " />
		<polyline id="24" points="561.239819720213,216.464071395576 572.8499512402,216.212750679547 584.460082760187,215.961429963518 " />
		<polyline id="47" points="453.269550090977,249.156280453347 433.093487256577,238.770067189788 412.917424422177,228.383853926229 " />
		<polyline id="48" points="506.575999578404,212.217264194476 507.142668880716,219.408114068809 507.709338183028,226.598963943142 " />
		<polyline id="52" points="487.968161092308,263.537980202013 495.605018318008,259.860491357603 503.241875543709,256.183002513194 " />
		<polyline id="58" points="453.071874752889,246.581525362834 479.823937165647,229.399394778655 506.575999578404,212.217264194476 " />
		<polyline id="67" points="263.053161487694,285.623429245452 262.288816847295,320.613427706787 261.524472206896,355.603426168121 " />
		<polyline id="70" points="518.634195197813,261.578704416058 527.582298832379,259.33733394878 536.530402466944,257.095963481503 " />
		<polyline id="74" points="518.634195197813,261.578704416058 532.227669276032,274.390931938218 545.821143354251,287.203159460378 " />
		<polyline id="77" points="795.445560211946,295.019746627651 1168.53799320003,266.287121095503 1541.63042618812,237.554495563355 " />
		<polyline id="78" points="795.445560211946,295.019746627651 790.595925252381,292.90660101552 785.746290292816,290.793455403389 " />
		<polyline id="83" points="11.6628449434213,315.269015745945 5.83142247171064,337.272400882142 0,359.275786018339 " />
		<polyline id="91" points="675.285311404576,218.095091552487 669.243035238942,230.666256347074 663.200759073309,243.23742114166 " />
		<polyline id="94" points="250.850003953538,340.513925219235 256.951582720616,313.068677232344 263.053161487694,285.623429245452 " />
		<polyline id="97" points="710.866872249102,350.484689952243 687.033815661206,296.861055546951 663.200759073309,243.23742114166 " />
		<polyline id="105" points="79.0042434305717,381.525362876264 45.3335441869965,348.397189311105 11.6628449434213,315.269015745945 " />
		<polyline id="114" points="545.821143354251,287.203159460378 576.915474025519,282.484484792477 608.009804696788,277.765810124576 " />
		<polyline id="119" points="308.663451147789,57.4139611221642 491.974381276182,137.754526337326 675.285311404576,218.095091552487 " />
		<polyline id="123" points="309.440974144117,61.373544647896 189.228011913313,30.686772323948 69.015049682509,0 " />
		<polyline id="129" points="357.950502095413,236.785146432767 379.635486676765,232.461404318579 401.320471258118,228.137662204392 " />
		<polyline id="130" points="357.950502095413,236.785146432767 405.610026093195,242.970713443057 453.269550090977,249.156280453347 " />
		<polyline id="131" points="418.860862918766,226.845155664907 462.718431248585,219.531209929692 506.575999578404,212.217264194476 " />
		<polyline id="134" points="418.860862918766,226.845155664907 415.889143670471,227.614504795568 412.917424422177,228.383853926229 " />
		<polyline id="136" points="416.897287894475,225.1423295891 461.736643736439,218.679796891788 506.575999578404,212.217264194476 " />
		<polyline id="139" points="1541.63042618812,237.554495563355 1108.45786879635,227.824793557921 675.285311404576,218.095091552487 " />
	</g>
	<g id="group_Player 4" style="stroke: #FF9900; marker-mid: url(#Tri); stroke-width: 0.5">
		<polyline id="8" points="503.241875543709,256.183002513194 505.475606863368,241.390983228168 507.709338183028,226.598963943142 " />
		<polyline id="16" points="527.186948156297,256.203518489959 520.380327350358,256.121454582716 513.573706544419,256.039390675474 " />
		<polyline id="22" points="663.200759073309,243.23742114166 635.605281885048,260.501615633118 608.009804696788,277.765810124576 " />
		<polyline id="25" points="72.9685564429496,462.132635790102 36.4842782214748,410.70421090422 0,359.275786018339 " />
		<polyline id="26" points="72.9685564429496,462.132635790102 167.246514324923,408.868030979111 261.524472206896,355.603426168121 " />
		<polyline id="34" points="481.998365883861,262.717341129366 487.441026857501,259.568138687971 492.883687831142,256.418936246576 " />
		<polyline id="35" points="481.998365883861,262.717341129366 514.911309665048,281.597168795161 547.824253446235,300.476996460956 " />
		<polyline id="43" points="408.344534935803,227.050315433142 410.63097967899,227.717084679686 412.917424422177,228.383853926229 " />
		<polyline id="46" points="453.269550090977,249.156280453347 427.295010674547,238.646971328869 401.320471258118,228.137662204392 " />
		<polyline id="53" points="412.917424422177,228.383853926229 414.907356158326,226.763091757665 416.897287894475,225.1423295891 " />
		<polyline id="57" points="453.071874752889,246.581525362834 480.390606467958,236.590244652988 507.709338183028,226.598963943142 " />
		<polyline id="69" points="518.634195197813,261.578704416058 514.700455971125,258.911627429847 510.766716744437,256.244550443635 " />
		<polyline id="82" points="547.824253446235,300.476996460956 404.674362826565,328.040211314538 261.524472206896,355.603426168121 " />
		<polyline id="84" points="11.6628449434213,315.269015745945 137.358003215558,300.446222495699 263.053161487694,285.623429245452 " />
		<polyline id="98" points="710.866872249102,350.484689952243 741.2100366359,305.072575267938 771.553201022698,259.660460583633 " />
		<polyline id="99" points="710.866872249102,350.484689952243 520.670251179479,454.73662614757 330.473630109855,558.988562342898 " />
		<polyline id="104" points="79.0042434305717,381.525362876264 171.028702459133,333.574396060858 263.053161487694,285.623429245452 " />
		<polyline id="107" points="79.0042434305717,381.525362876264 63.0716111858259,376.832333179393 47.1389789410802,372.139303482521 " />
		<polyline id="113" points="545.821143354251,287.203159460378 541.175772910598,272.14956147094 536.530402466944,257.095963481503 " />
		<polyline id="115" points="545.821143354251,287.203159460378 516.894652223279,275.370569831195 487.968161092308,263.537980202013 " />
		<polyline id="116" points="545.821143354251,287.203159460378 541.617247832196,271.764886905646 537.41335231014,256.326614350915 " />
		<polyline id="122" points="309.440974144117,61.373544647896 329.959674231071,84.0642150074382 350.478374318025,106.75488536698 " />
		<polyline id="124" points="309.440974144117,61.373544647896 312.788276534647,100.425706518934 316.135578925177,139.477868389971 " />
		<polyline id="127" points="357.950502095413,236.785146432767 311.872380801863,255.890649843525 265.794259508314,274.996153254284 " />
		<polyline id="133" points="418.860862918766,226.845155664907 435.966368835828,236.713340513871 453.071874752889,246.581525362834 " />
		<polyline id="141" points="608.009804696788,277.765810124576 607.014838828713,288.470021028832 606.019872960639,299.174231933089 " />
		<polyline id="142" points="608.009804696788,277.765810124576 592.966711473061,265.543416935908 577.923618249335,253.32102374724 " />
		<polyline id="146" points="316.135578925177,139.477868389971 192.575314303843,69.7389341949857 69.015049682509,0 " />
		<polyline id="147" points="316.135578925177,139.477868389971 290.964919216745,207.237010822128 265.794259508314,274.996153254284 " />
	</g>
	<g id="group_Hegz" style="stroke: #FF0000; marker-mid: url(#Tri); stroke-width: 0.5">
		<polyline id="7" points="513.573706544419,256.039390675474 512.170211644428,256.141970559554 510.766716744437,256.244550443635 " />
		<polyline id="15" points="527.186948156297,256.203518489959 531.858675311621,256.649740985731 536.530402466944,257.095963481503 " />
		<polyline id="17" points="527.186948156297,256.203518489959 532.300150233219,256.265066420437 537.41335231014,256.326614350915 " />
		<polyline id="19" points="663.200759073309,243.23742114166 620.562188661322,248.27922244445 577.923618249335,253.32102374724 " />
		<polyline id="30" points="72.9685564429496,462.132635790102 75.9863999367606,421.828999333183 79.0042434305717,381.525362876264 " />
		<polyline id="36" points="481.998365883861,262.717341129366 484.983263488084,263.127660665689 487.968161092308,263.537980202013 " />
		<polyline id="40" points="408.344534935803,227.050315433142 412.620911415139,226.096322511121 416.897287894475,225.1423295891 " />
		<polyline id="41" points="408.344534935803,227.050315433142 362.24005693049,183.264091911557 316.135578925177,139.477868389971 " />
		<polyline id="45" points="453.269550090977,249.156280453347 453.170712421933,247.86890290809 453.071874752889,246.581525362834 " />
		<polyline id="56" points="401.320471258118,228.137662204392 358.728025091647,183.807765297181 316.135578925177,139.477868389971 " />
		<polyline id="59" points="453.071874752889,246.581525362834 472.977781292015,251.500230804705 492.883687831142,256.418936246576 " />
		<polyline id="63" points="545.570754592636,213.530286710726 526.07337708552,212.873775452601 506.575999578404,212.217264194476 " />
		<polyline id="65" points="545.570754592636,213.530286710726 553.405287156424,214.997179053151 561.239819720213,216.464071395576 " />
		<polyline id="73" points="518.634195197813,261.578704416058 522.910571677055,258.891111453009 527.186948156297,256.203518489959 " />
		<polyline id="76" points="795.445560211946,295.019746627651 660.775941593573,536.708211519679 526.106322975201,778.396676411708 " />
		<polyline id="89" points="675.285311404576,218.095091552487 629.872697082382,217.028260758003 584.460082760187,215.961429963518 " />
		<polyline id="93" points="250.850003953538,340.513925219235 256.187238080217,348.058675693678 261.524472206896,355.603426168121 " />
		<polyline id="100" points="710.866872249102,350.484689952243 618.486597612152,564.440683181975 526.106322975201,778.396676411708 " />
		<polyline id="103" points="79.0042434305717,381.525362876264 170.264357818734,368.564394522193 261.524472206896,355.603426168121 " />
		<polyline id="109" points="47.1389789410802,372.139303482521 29.4009119422507,343.704159614233 11.6628449434213,315.269015745945 " />
		<polyline id="110" points="545.821143354251,287.203159460378 575.920508157445,293.188695696733 606.019872960639,299.174231933089 " />
		<polyline id="112" points="545.821143354251,287.203159460378 546.822698400243,293.840077960667 547.824253446235,300.476996460956 " />
		<polyline id="117" points="308.663451147789,57.4139611221642 329.570912732907,82.0844232445723 350.478374318025,106.75488536698 " />
		<polyline id="118" points="308.663451147789,57.4139611221642 188.839250415149,28.7069805610821 69.015049682509,0 " />
		<polyline id="121" points="308.663451147789,57.4139611221642 309.052212645953,59.3937528850301 309.440974144117,61.373544647896 " />
		<polyline id="126" points="357.950502095413,236.785146432767 310.501831791554,261.20428783911 263.053161487694,285.623429245452 " />
		<polyline id="135" points="416.897287894475,225.1423295891 383.68783110625,165.94860747804 350.478374318025,106.75488536698 " />
		<polyline id="138" points="1541.63042618812,237.554495563355 1156.59181360541,248.607478073494 771.553201022698,259.660460583633 " />
		<polyline id="144" points="69.015049682509,0 34.5075248412545,179.637893009169 0,359.275786018339 " />
		<polyline id="145" points="316.135578925177,139.477868389971 333.306976621601,123.116376878476 350.478374318025,106.75488536698 " />
	</g>
	<g id="group_Player 5" style="stroke: #9900FF; marker-mid: url(#Tri); stroke-width: 0.5">
		<polyline id="4" points="510.766716744437,256.244550443635 509.238027463732,241.421757193389 507.709338183028,226.598963943142 " />
		<polyline id="13" points="537.41335231014,256.326614350915 536.971877388542,256.711288916209 536.530402466944,257.095963481503 " />
		<polyline id="23" points="561.239819720213,216.464071395576 569.581718984774,234.892547571408 577.923618249335,253.32102374724 " />
		<polyline id="28" points="72.9685564429496,462.132635790102 299.537439709075,620.264656100905 526.106322975201,778.396676411708 " />
		<polyline id="33" points="481.998365883861,262.717341129366 371.761419045378,309.160383648744 261.524472206896,355.603426168121 " />
		<polyline id="37" points="481.998365883861,262.717341129366 467.535120318375,254.6494332461 453.071874752889,246.581525362834 " />
		<polyline id="38" points="481.998365883861,262.717341129366 467.633957987419,255.936810791356 453.269550090977,249.156280453347 " />
		<polyline id="39" points="669.842650431029,223.172795814689 627.151366595608,219.567112889104 584.460082760187,215.961429963518 " />
		<polyline id="50" points="487.968161092308,263.537980202013 490.425924461725,259.978458224295 492.883687831142,256.418936246576 " />
		<polyline id="61" points="545.570754592636,213.530286710726 526.640046387832,220.064625326934 507.709338183028,226.598963943142 " />
		<polyline id="62" points="545.570754592636,213.530286710726 448.024564455331,160.142586038853 350.478374318025,106.75488536698 " />
		<polyline id="66" points="545.570754592636,213.530286710726 541.492053451388,234.92845053082 537.41335231014,256.326614350915 " />
		<polyline id="68" points="518.634195197813,261.578704416058 510.938035370761,258.880853464626 503.241875543709,256.183002513194 " />
		<polyline id="72" points="518.634195197813,261.578704416058 503.30117814506,262.558342309035 487.968161092308,263.537980202013 " />
		<polyline id="75" points="795.445560211946,295.019746627651 783.499380617322,277.340103605642 771.553201022698,259.660460583633 " />
		<polyline id="79" points="795.445560211946,295.019746627651 753.156216230524,322.752218289947 710.866872249102,350.484689952243 " />
		<polyline id="85" points="11.6628449434213,315.269015745945 40.3389473129652,157.634507872973 69.015049682509,0 " />
		<polyline id="88" points="675.285311404576,218.095091552487 512.8818428613,162.424988459734 350.478374318025,106.75488536698 " />
		<polyline id="90" points="675.285311404576,218.095091552487 672.563980917802,220.633943683588 669.842650431029,223.172795814689 " />
		<polyline id="92" points="675.285311404576,218.095091552487 723.419256213637,238.87777606806 771.553201022698,259.660460583633 " />
		<polyline id="95" points="710.866872249102,350.484689952243 658.44337260487,324.829460942666 606.019872960639,299.174231933089 " />
		<polyline id="96" points="710.866872249102,350.484689952243 629.345562847669,325.480843206599 547.824253446235,300.476996460956 " />
		<polyline id="106" points="79.0042434305717,381.525362876264 164.927123692055,361.01964404775 250.850003953538,340.513925219235 " />
		<polyline id="111" points="545.821143354251,287.203159460378 561.872380801793,270.262091603809 577.923618249335,253.32102374724 " />
		<polyline id="120" points="308.663451147789,57.4139611221642 925.146938667956,147.48422834276 1541.63042618812,237.554495563355 " />
		<polyline id="125" points="357.950502095413,236.785146432767 309.737487151154,296.194286300444 261.524472206896,355.603426168121 " />
		<polyline id="132" points="418.860862918766,226.845155664907 417.87907540662,225.993742627004 416.897287894475,225.1423295891 " />
		<polyline id="137" points="1541.63042618812,237.554495563355 805.322737935317,118.777247781678 69.015049682509,0 " />
		<polyline id="143" points="771.553201022698,259.660460583633 717.376980048003,251.448940862646 663.200759073309,243.23742114166 " />
	</g>
	<g id="group_y" style="fill: Purple; stroke: purple; stroke-width: 0.05">
		<circle cx="330.473630109855" cy="558.988562342898" id="Albert McGowan Spray Park" r="1.5" />
		<circle cx="492.883687831142" cy="256.418936246576" id="Alley Art - Archway" r="1.5" />
		<circle cx="510.766716744437" cy="256.244550443635" id="Alley Art - Cityscape" r="1.5" />
		<circle cx="513.573706544419" cy="256.039390675474" id="Alley Art - Graffiti" r="1.5" />
		<circle cx="503.241875543709" cy="256.183002513194" id="Alley Art - Shoe" r="1.5" />
		<circle cx="536.530402466944" cy="257.095963481503" id="Alley Art - Spy vs Spy" r="1.5" />
		<circle cx="537.41335231014" cy="256.326614350915" id="Alley Art - Vista" r="1.5" />
		<circle cx="527.186948156297" cy="256.203518489959" id="Alley Art - Zen" r="1.5" />
		<circle cx="663.200759073309" cy="243.23742114166" id="Arena Mural" r="1.5" />
		<circle cx="561.239819720213" cy="216.464071395576" id="Builders Forest" r="1.5" />
		<circle cx="606.019872960639" cy="299.174231933089" id="Department of Highways Fountain" r="1.5" />
		<circle cx="72.9685564429496" cy="462.132635790102" id="Fish Statue" r="1.5" />
		<circle cx="584.460082760187" cy="215.961429963518" id="Fishbone Riverside" r="1.5" />
		<circle cx="481.998365883861" cy="262.717341129366" id="Gaglardi Statue" r="1.5" />
		<circle cx="669.842650431029" cy="223.172795814689" id="Heritage Railway Caboose" r="1.5" />
		<circle cx="408.344534935803" cy="227.050315433142" id="Hidee Saito Volunteer Memorial" r="1.5" />
		<circle cx="453.269550090977" cy="249.156280453347" id="Kamloops City Hall" r="1.5" />
		<circle cx="506.575999578404" cy="212.217264194476" id="Kamloops Monuments" r="1.5" />
		<circle cx="487.968161092308" cy="263.537980202013" id="Kamloops Museum and Archives" r="1.5" />
		<circle cx="507.709338183028" cy="226.598963943142" id="Kamloops Sculpture" r="1.5" />
		<circle cx="412.917424422177" cy="228.383853926229" id="Kamloops boat sculpture" r="1.5" />
		<circle cx="401.320471258118" cy="228.137662204392" id="Kamloops sculpture" r="1.5" />
		<circle cx="453.071874752889" cy="246.581525362834" id="Kamloops sculpture Overlanders" r="1.5" />
		<circle cx="0" cy="359.275786018339" id="Kenna Cartwright Park Sign" r="1.5" />
		<circle cx="526.106322975201" cy="778.396676411708" id="Knutsford Community Hall" r="1.5" />
		<circle cx="545.570754592636" cy="213.530286710726" id="Mayors_Grove" r="1.5" />
		<circle cx="263.053161487694" cy="285.623429245452" id="McIntosh Heights Lookout" r="1.5" />
		<circle cx="350.478374318025" cy="106.75488536698" id="Moose Park" r="1.5" />
		<circle cx="518.634195197813" cy="261.578704416058" id="Old Main Post Office" r="1.5" />
		<circle cx="795.445560211946" cy="295.019746627651" id="PCP Mural" r="1.5" />
		<circle cx="785.746290292816" cy="290.793455403389" id="PCP Plaque" r="1.5" />
		<circle cx="547.824253446235" cy="300.476996460956" id="Ponderosa Inukshuk" r="1.5" />
		<circle cx="11.6628449434213" cy="315.269015745945" id="Rangers APC" r="1.5" />
		<circle cx="675.285311404576" cy="218.095091552487" id="Red Bridge Marker" r="1.5" />
		<circle cx="250.850003953538" cy="340.513925219235" id="Riverpole-day" r="1.5" />
		<circle cx="261.524472206896" cy="355.603426168121" id="Riverpole-night" r="1.5" />
		<circle cx="710.866872249102" cy="350.484689952243" id="Sagebrush Theatre" r="1.5" />
		<circle cx="265.794259508314" cy="274.996153254284" id="Scenic Lookout" r="1.5" />
		<circle cx="79.0042434305717" cy="381.525362876264" id="School bell" r="1.5" />
		<circle cx="47.1389789410802" cy="372.139303482521" id="Shopping Penguins" r="1.5" />
		<circle cx="545.821143354251" cy="287.203159460378" id="St. Paul's Cathedral" r="1.5" />
		<circle cx="308.663451147789" cy="57.4139611221642" id="The Schuberts" r="1.5" />
		<circle cx="309.440974144117" cy="61.373544647896" id="Totem Poles" r="1.5" />
		<circle cx="357.950502095413" cy="236.785146432767" id="T’kemlups Secwepemc ~ Kamloops" r="1.5" />
		<circle cx="418.860862918766" cy="226.845155664907" id="Uji Feature Garden Archway" r="1.5" />
		<circle cx="416.897287894475" cy="225.1423295891" id="Uji Way Friendship Garden" r="1.5" />
		<circle cx="1541.63042618812" cy="237.554495563355" id="Valleyview Centennial Park" r="1.5" />
		<circle cx="608.009804696788" cy="277.765810124576" id="Wall of Honor Fountain" r="1.5" />
		<circle cx="771.553201022698" cy="259.660460583633" id="Western Canada Theatre" r="1.5" />
		<circle cx="577.923618249335" cy="253.32102374724" id="Wildfire Memorial" r="1.5" />
		<circle cx="69.015049682509" cy="0" id="Wise Guys Car Wash" r="1.5" />
		<circle cx="316.135578925177" cy="139.477868389971" id="Wizard Graffiti" r="1.5" />
	</g>
	<!-- 
	Generated using the Perl SVG Module V2.52
	by Ronan Oger
	Info: http://www.roitsystems.com/
 -->
</svg>